<svg width="50" height="50" viewBox="0 0 50 50" fill="none" xmlns="http://www.w3.org/2000/svg">
<path d="M25.0025 19.5C24.2799 19.5 23.5644 19.6423 22.8968 19.9189C22.2292 20.1954 21.6226 20.6007 21.1116 21.1116C20.6007 21.6226 20.1954 22.2292 19.9189 22.8968C19.6423 23.5644 19.5 24.2799 19.5 25.0025C19.5 25.7251 19.6423 26.4406 19.9189 27.1082C20.1954 27.7758 20.6007 28.3824 21.1116 28.8934C21.6226 29.4043 22.2292 29.8096 22.8968 30.0861C23.5644 30.3627 24.2799 30.505 25.0025 30.505C26.4619 30.5047 27.8613 29.9246 28.893 28.8925C29.9247 27.8603 30.5041 26.4606 30.5037 25.0012C30.5034 23.5419 29.9234 22.1424 28.8912 21.1108C27.8591 20.0791 26.4594 19.4997 25 19.5H25.0025ZM7.5025 19.5C6.7799 19.5 6.06438 19.6423 5.39678 19.9189C4.72919 20.1954 4.1226 20.6007 3.61164 21.1116C3.10069 21.6226 2.69538 22.2292 2.41885 22.8968C2.14233 23.5644 2 24.2799 2 25.0025C2 25.7251 2.14233 26.4406 2.41885 27.1082C2.69538 27.7758 3.10069 28.3824 3.61164 28.8934C4.1226 29.4043 4.72919 29.8096 5.39678 30.0861C6.06438 30.3627 6.7799 30.505 7.5025 30.505C8.96185 30.5047 10.3613 29.9246 11.393 28.8925C12.4247 27.8603 13.0041 26.4606 13.0037 25.0012C13.0034 23.5419 12.4234 22.1424 11.3912 21.1108C10.3591 20.0791 8.96185 19.4997 7.5025 19.5ZM42.5025 19.5C41.7799 19.5 41.0644 19.6423 40.3968 19.9189C39.7292 20.1954 39.1226 20.6007 38.6116 21.1116C38.1007 21.6226 37.6954 22.2292 37.4189 22.8968C37.1423 23.5644 37 24.2799 37 25.0025C37 25.7251 37.1423 26.4406 37.4189 27.1082C37.6954 27.7758 38.1007 28.3824 38.6116 28.8934C39.1226 29.4043 39.7292 29.8096 40.3968 30.0861C41.0644 30.3627 41.7799 30.505 42.5025 30.505C43.9619 30.5047 45.3613 29.9246 46.393 28.8925C47.4247 27.8603 48.0041 26.4606 48.0038 25.0012C48.0034 23.5419 47.4234 22.1424 46.3912 21.1108C45.3591 20.0791 43.9619 19.4997 42.5025 19.5Z" fill="white"/>
</svg>
